#!OML:ASF E:\motion texture\Top Level 1\Subject 1\Session 1\male.ASF
:FULLY-SPECIFIED
:DEGREES
682
root -23.5828 17.9575 5.76389 156.392 -73.9997 -147.181
lowerback -0.353592 -0.0668956 6.19105
upperback -2.53888 -0.106807 4.4597
thorax -2.42169 -0.205409 1.13717
lowerneck -0.405111 -15.8522 -17.1415
upperneck 6.24493 -22.0409 13.177
head 5.28468 -10.9555 5.0366
rclavicle -4.6118e-014 -5.00937e-014
rhumerus -13.7418 20.484 -87.2797
rradius 44.8345
rwrist 7.07904
rhand -15.2455 -18.4504
rfingers 7.12502
rthumb 10.9279 -48.146
lclavicle -4.6118e-014 -5.00937e-014
lhumerus -35.9657 7.97321 84.747
lradius 45.7562
lwrist -22.4809
lhand -14.3578 13.5777
lfingers 7.12502
lthumb 11.7841 43.2262
rfemur -0.966481 2.61677 31.9094
rtibia 21.3653
rfoot -11.9039 3.03595
rtoes 9.08245
lfemur -28.6242 -0.449089 -4.36164
ltibia 16.1089
lfoot -4.17656 11.1537
ltoes -12.5305
683
root -23.7376 17.9441 5.75899 156.613 -73.9576 -147.468
lowerback -0.38526 -0.0422619 6.1358
upperback -2.53 -0.0752638 4.37392
thorax -2.39359 -0.18689 1.07802
lowerneck -0.473423 -15.8295 -17.1158
upperneck 6.2353 -21.9885 13.1166
head 5.27496 -10.9283 5.01816
rclavicle -4.70374e-014 1.19271e-015
rhumerus -13.8653 19.5589 -86.9108
rradius 44.0748
rwrist 7.04924
rhand -15.3416 -18.6017
rfingers 7.12502
rthumb 10.8353 -48.3022
lclavicle -4.70374e-014 1.19271e-015
lhumerus -36.1737 9.07817 84.0717
lradius 44.2334
lwrist -22.6278
lhand -14.4197 13.9089
lfingers 7.12502
lthumb 11.7244 43.5608
rfemur -0.910849 2.56578 31.7095
rtibia 22.2411
rfoot -11.6689 3.17761
rtoes 8.46945
lfemur -28.6031 -0.553593 -4.52727
ltibia 15.9814
lfoot -3.92451 11.1685
ltoes -12.0575
684
root -23.8936 17.9311 5.75432 156.858 -73.9284 -147.794
lowerback -0.411568 -0.0176015 6.06693
upperback -2.51779 -0.0431648 4.28432
thorax -2.36495 -0.16765 1.02251
lowerneck -0.555006 -15.7969 -17.0818
upperneck 6.22951 -21.9194 13.0426
head 5.26361 -10.8925 4.99603
rclavicle -1.84124e-014 2.26615e-014
rhumerus -14.0078 18.5772 -86.5205
rradius 43.2347
rwrist 7.02503
rhand -15.4265 -18.7844
rfingers 7.12502
rthumb 10.7534 -48.4892
lclavicle -1.84124e-014 2.26615e-014
lhumerus -36.3951 10.224 83.3301
lradius 42.6847
lwrist -22.8251
lhand -14.4641 14.2632
lfingers 7.12502
lthumb 11.6815 43.9175
rfemur -0.885035 2.50577 31.4835
rtibia 23.176
rfoot -11.3591 3.31831
rtoes 7.90172
lfemur -28.5632 -0.636325 -4.73499
ltibia 15.9432
lfoot -3.68544 11.1432
ltoes -11.5671
685
root -24.0509 17.9188 5.74987 157.129 -73.9129 -148.158
lowerback -0.433649 0.00690392 5.98496
upperback -2.50211 -0.0108741 4.19069
thorax -2.33504 -0.14788 0.970193
lowerneck -0.64955 -15.7543 -17.0391
upperneck 6.22598 -21.8333 12.9558
head 5.25022 -10.8481 4.97045
rclavicle -1.61513e-015 -2.82274e-014
rhumerus -14.1682 17.5378 -86.1075
rradius 42.3175
rwrist 7.00918
rhand -15.5026 -18.9943
rfingers 7.12502
rthumb 10.6799 -48.7029
lclavicle -1.61513e-015 -2.82274e-014
lhumerus -36.6329 11.4113 82.5187
lradius 41.1178
lwrist -23.0775
lhand -14.4951 14.6332
lfingers 7.12502
lthumb 11.6517 44.2892
rfemur -0.891802 2.43564 31.2319
rtibia 24.1704
rfoot -10.9714 3.45084
rtoes 7.39313
lfemur -28.5044 -0.699716 -4.98376
ltibia 15.9891
lfoot -3.46268 11.0791
ltoes -11.0635
686
root -24.2092 17.9071 5.74563 157.422 -73.9104 -148.556
lowerback -0.449842 0.0312119 5.89167
upperback -2.48379 0.0217267 4.09351
thorax -2.30566 -0.127634 0.920548
lowerneck -0.754081 -15.702 -16.9897
upperneck 6.22329 -21.7312 12.8571
head 5.23433 -10.7957 4.94207
rclavicle 2.26739e-014 4.49253e-014
rhumerus -14.3485 16.4402 -85.6706
rradius 41.3295
rwrist 7.00339
rhand -15.5639 -19.2386
rfingers 7.12502
rthumb 10.6209 -48.9502
lclavicle 2.26739e-014 4.49253e-014
lhumerus -36.8937 12.6416 81.6331
lradius 39.5428
lwrist -23.3976
lhand -14.5067 15.0213
lfingers 7.12502
lthumb 11.6405 44.678
rfemur -0.932104 2.35337 30.9561
rtibia 25.2243
rfoot -10.5077 3.56865
rtoes 6.93066
lfemur -28.424 -0.746921 -5.27044
ltibia 16.1128
lfoot -3.25894 10.9803
ltoes -10.5374
687
root -24.3686 17.8962 5.74157 157.734 -73.9203 -148.987
lowerback -0.460617 0.055197 5.78781
upperback -2.46194 0.054343 3.9933
thorax -2.27564 -0.107056 0.873737
lowerneck -0.87112 -15.6406 -16.9324
upperneck 6.22036 -21.6135 12.7469
head 5.21611 -10.7353 4.9106
rclavicle 5.20195e-014 -1.63003e-014
rhumerus -14.546 15.283 -85.2077
rradius 40.2744
rwrist 7.01151
rhand -15.6133 -19.5086
rfingers 7.12502
rthumb 10.5732 -49.2226
lclavicle 5.20195e-014 -1.63003e-014
lhumerus -37.1804 13.9148 80.67
lradius 37.9691
lwrist -23.7876
lhand -14.5073 15.418
lfingers 7.12502
lthumb 11.6399 45.0747
rfemur -1.00685 2.25911 30.6579
rtibia 26.336
rfoot -9.97447 3.66139
rtoes 6.48714
lfemur -28.321 -0.780916 -5.59163
ltibia 16.3079
lfoot -3.07604 10.8502
ltoes -9.99748
688
root -24.5288 17.8862 5.7376 158.059 -73.9432 -149.443
lowerback -0.465436 0.0786723 5.67451
upperback -2.43779 0.0867883 3.89088
thorax -2.24661 -0.0863433 0.829978
lowerneck -0.996348 -15.5703 -16.8689
upperneck 6.21507 -21.4808 12.6258
head 5.19459 -10.6676 4.87669
rclavicle -6.43565e-015 -2.3059e-014
rhumerus -14.7664 14.0644 -84.717
rradius 39.1648
rwrist 7.03433
rhand -15.649 -19.8137
rfingers 7.12502
rthumb 10.5388 -49.5295
lclavicle -6.43565e-015 -2.3059e-014
lhumerus -37.4999 15.2308 79.6251
lradius 36.4067
lwrist -24.2556
lhand -14.4924 15.8211
lfingers 7.12502
lthumb 11.6543 45.477
rfemur -1.11808 2.15148 30.3405
rtibia 27.5042
rfoot -9.37454 3.7186
rtoes 6.06644
lfemur -28.1947 -0.80415 -5.94352
ltibia 16.5682
lfoot -2.91709 10.6922
ltoes -9.4503
689
root -24.6898 17.877 5.73377 158.398 -73.9804 -149.923
lowerback -0.46603 0.101255 5.55285
upperback -2.4104 0.118317 3.78638
thorax -2.21665 -0.0658558 0.788806
lowerneck -1.13339 -15.492 -16.7982
upperneck 6.20763 -21.3342 12.4935
head 5.17054 -10.5928 4.83966
rclavicle 2.22639e-014 2.18663e-014
rhumerus -15.0052 12.7821 -84.1955
rradius 38.0035
rwrist 7.07242
rhand -15.6748 -20.1443
rfingers 7.12502
rthumb 10.5139 -49.8613
lclavicle 2.22639e-014 2.18663e-014
lhumerus -37.8558 16.5898 78.4948
lradius 34.8665
lwrist -24.8078
lhand -14.4594 16.2287
lfingers 7.12502
lthumb 11.6861 45.8828
rfemur -1.26672 2.0281 30.0037
rtibia 28.7268
rfoot -8.7109 3.73468
rtoes 5.69638
lfemur -28.0446 -0.821448 -6.32459
ltibia 16.8866
lfoot -2.78215 10.5099
ltoes -8.9112
690
root -24.8515 17.8687 5.73003 158.747 -74.0331 -150.424
lowerback -0.46258 0.122246 5.42344
upperback -2.37957 0.14795 3.67995
thorax -2.18548 -0.046103 0.750071
lowerneck -1.27958 -15.4056 -16.7208
upperneck 6.19474 -21.1737 12.352
head 5.14289 -10.5111 4.80044
rclavicle -2.86871e-014 2.8625e-014
rhumerus -15.2636 11.4348 -83.6416
rradius 36.801
rwrist 7.12376
rhand -15.692 -20.5012
rfingers 7.12502
rthumb 10.4972 -50.2191
lclavicle -2.86871e-014 2.8625e-014
lhumerus -38.2538 17.9905 77.2747
lradius 33.3587
lwrist -25.4426
lhand -14.4153 16.6303
lfingers 7.12502
lthumb 11.7286 46.2819
rfemur -1.45306 1.88728 29.6488
rtibia 30.0001
rfoot -7.99007 3.70367
rtoes 5.37265
lfemur -27.8688 -0.837591 -6.73186
ltibia 17.2543
lfoot -2.67759 10.3088
ltoes -8.37723
691
root -25.0136 17.8614 5.72635 159.109 -74.0984 -150.949
lowerback -0.452974 0.142499 5.28647
upperback -2.34577 0.176983 3.57223
thorax -2.15476 -0.0265003 0.714306
lowerneck -1.43616 -15.312 -16.636
upperneck 6.1781 -21.0007 12.1991
head 5.11229 -10.4231 4.75791
rclavicle 2.53947e-014 -4.21423e-014
rhumerus -15.5444 10.0185 -83.0522
rradius 35.5654
rwrist 7.19228
rhand -15.6974 -20.883
rfingers 7.12502
rthumb 10.4921 -50.6012
lclavicle 2.53947e-014 -4.21423e-014
lhumerus -38.7013 19.4305 75.9605
lradius 31.8942
lwrist -26.1665
lhand -14.354 17.0248
lfingers 7.12502
lthumb 11.7878 46.6731
rfemur -1.67683 1.73122 29.2777
rtibia 31.3201
rfoot -7.21323 3.61977
rtoes 5.0964
lfemur -27.6639 -0.853072 -7.16172
ltibia 17.6627
lfoot -2.6054 10.0936
ltoes -7.85818
